<?xml version="1.0"?>
<svg xmlns="http://www.w3.org/2000/svg" xmlns:xlink="http://www.w3.org/1999/xlink" xmlns:svgjs="http://svgjs.com/svgjs" version="1.1" width="512" height="512" x="0" y="0" viewBox="0 0 512 512" style="enable-background:new 0 0 512 512" xml:space="preserve" class=""><g><g xmlns="http://www.w3.org/2000/svg"><path d="m382.147 9.853h90v150h-90z" transform="matrix(.707 -.707 .707 .707 65.108 326.892)" fill="#ffffff" data-original="#000000" style="" class=""/><path d="m61.65 351.712-23.571 61.283 60.926 60.926 61.284-23.571z" fill="#ffffff" data-original="#000000" style="" class=""/><path d="m122.683 281.885h282.144v60h-282.144z" transform="matrix(.707 -.707 .707 .707 -143.284 277.851)" fill="#ffffff" data-original="#000000" style="" class=""/><path d="m26.294 443.635-26.294 68.365 68.365-26.294z" fill="#ffffff" data-original="#000000" style="" class=""/><path d="m59.043 218.245h282.144v60h-282.144z" transform="matrix(.707 -.707 .707 .707 -116.924 214.212)" fill="#ffffff" data-original="#000000" style="" class=""/><path d="m348.507 73.493h30v150h-30z" transform="matrix(.707 -.707 .707 .707 1.469 300.531)" fill="#ffffff" data-original="#000000" style="" class=""/></g></g></svg>
