<?xml version="1.0"?>
<svg xmlns="http://www.w3.org/2000/svg" id="Layer" enable-background="new 0 0 512 512" height="512" viewBox="0 0 512 512" width="512" class=""><g><path d="m54 408h34v60c0 24.262 19.738 44 44 44h248c24.262 0 44-19.738 44-44v-60h34c29.776 0 54-24.224 54-54v-188c0-29.776-24.224-54-54-54h-34v-68c0-24.262-19.738-44-44-44h-248c-24.262 0-44 19.738-44 44v68h-34c-29.776 0-54 24.224-54 54v188c0 29.776 24.224 54 54 54zm322 56h-240v-160h240zm-240-416h240v64h-240zm-88 118c0-3.309 2.691-6 6-6h404c3.309 0 6 2.691 6 6v188c0 3.309-2.691 6-6 6h-34v-80c0-13.255-10.745-24-24-24h-288c-13.255 0-24 10.745-24 24v80h-34c-3.309 0-6-2.691-6-6z" data-original="#000000" class="active-path" style="fill:#FFFFFF" data-old_color="#000000"/><path d="m96.02 232c13.255 0 24-10.745 24-24s-10.745-24-24-24h-.01c-13.254 0-23.995 10.745-23.995 24s10.75 24 24.005 24z" data-original="#000000" class="active-path" style="fill:#FFFFFF" data-old_color="#000000"/></g> </svg>
